
    <svg xmlns="http://www.w3.org/2000/svg" xmlns:xlink="http://www.w3.org/1999/xlink" version="1.1" width="32"
		height="32" viewBox="-20 40 800 800" xml:space="preserve">

		<desc>thanhcong icon</desc>
		<g transform="matrix(0.8 0 0 0.8 400 477.2769)" id="73826">
			<g style ="" vector-effect="non-scaling-stroke">
				<g transform="matrix(0.1854 0 0 -0.1854 -32.1897 -35.1585)" id="path4">
					<path
						style="stroke: none; stroke-width: 1; stroke-dasharray: none; stroke-linecap: butt; stroke-dashoffset: 0; stroke-linejoin: miter; stroke-miterlimit: 4; is-custom-font: none; font-file-url: none; fill: #13F522; fill-rule: nonzero; opacity: 1;"
						vector-effect="non-scaling-stroke" transform=" translate(-2568.0395, -2500.205)"
						d="m 2030 4697 c -138 -37 -165 -49 -179 -87 c -5 -14 -14 -94 -20 -178 c -6 -84 -16 -164 -23 -179 c -16 -33 -248 -161 -293 -162 c -21 -1 -77 25 -170 79 c -137 78 -173 90 -216 72 c -27 -11 -209 -185 -225 -214 c -24 -45 -17 -70 56 -214 c 81 -161 86 -192 42 -257 c -16 -23 -48 -74 -71 -114 c -23 -40 -51 -79 -63 -88 c -18 -12 -54 -15 -181 -15 c -177 0 -216 -9 -241 -58 c -20 -40 -86 -265 -86 -296 c 0 -38 43 -79 170 -160 c 63 -40 123 -85 133 -99 c 18 -22 19 -41 18 -168 c -1 -88 -7 -153 -14 -169 c -13 -27 -51 -53 -203 -140 c -98 -56 -124 -84 -124 -135 c 0 -14 14 -83 31 -153 c 25 -103 36 -133 59 -156 c 29 -29 31 -30 198 -41 c 196 -12 206 -16 249 -102 c 16 -32 47 -89 67 -128 c 29 -53 36 -77 32 -100 c -4 -16 -40 -89 -81 -161 c -107 -186 -107 -183 38 -331 c 142 -145 135 -144 330 -44 c 76 39 150 71 165 71 c 36 0 271 -140 288 -171 c 9 -17 13 -71 14 -182 c 0 -230 -5 -223 213 -286 c 176 -51 180 -49 287 116 c 118 181 104 173 274 173 c 189 0 191 -1 275 -151 c 91 -159 98 -169 137 -185 c 31 -13 44 -12 166 17 c 148 35 182 49 200 82 c 6 12 17 97 23 189 c 10 156 13 169 36 194 c 13 15 38 32 54 39 c 17 8 66 34 110 59 c 113 65 127 63 283 -27 c 70 -41 135 -77 146 -81 c 46 -16 83 5 194 110 c 147 140 146 130 48 326 c -42 83 -76 161 -76 172 c 0 23 6 35 95 181 c 45 75 67 101 92 111 c 23 10 80 14 193 14 h 162 l 28 28 c 26 27 48 84 96 259 c 16 59 16 63 -2 95 c -13 22 -62 61 -149 118 c -71 48 -137 99 -146 114 c -15 25 -17 48 -12 175 c 3 96 10 153 19 167 c 7 12 68 52 134 89 c 144 80 176 105 185 146 c 10 46 -52 294 -83 330 c -28 34 -44 37 -228 48 c -170 10 -180 15 -235 120 c -21 42 -50 96 -64 121 c -42 75 -37 94 76 282 c 89 147 89 150 -59 299 c -96 96 -124 119 -147 119 c -15 0 -89 -31 -164 -69 c -75 -37 -148 -71 -163 -75 c -34 -8 -67 5 -148 58 c -36 24 -84 53 -106 64 c -65 33 -74 62 -74 249 c 0 210 4 204 -195 264 c -123 36 -180 38 -210 8 c -11 -11 -58 -77 -105 -147 c -47 -69 -96 -132 -110 -139 c -34 -17 -306 -6 -337 14 c -11 8 -55 74 -97 147 c -42 74 -85 141 -96 151 c -31 28 -87 26 -220 -8 z m 875 -857 c 443 -115 789 -417 950 -830 c 120 -307 128 -640 23 -955 c -150 -453 -548 -804 -1026 -905 c -437 -93 -911 41 -1233 347 c -191 182 -322 403 -392 663 c -30 110 -41 208 -41 350 c 2 291 88 559 254 792 c 168 235 392 404 670 503 c 55 20 190 53 280 69 c 14 3 108 3 210 1 c 168 -3 196 -6 305 -35 z"
						stroke-linecap="round" />
				</g>
				<g transform="matrix(0.1854 0 0 -0.1854 -32.1623 -35.6081)" id="path6">
					<path
						style="stroke: none; stroke-width: 1; stroke-dasharray: none; stroke-linecap: butt; stroke-dashoffset: 0; stroke-linejoin: miter; stroke-miterlimit: 4; is-custom-font: none; font-file-url: none; fill: #126E18; fill-rule: nonzero; opacity: 1;"
						vector-effect="non-scaling-stroke" transform=" translate(-2567.8064, -2503.0078)"
						d="m 2480 3673 c -459 -39 -854 -338 -1014 -765 c -95 -256 -94 -568 4 -823 c 176 -455 613 -755 1100 -755 c 647 0 1170 522 1170 1169 c 0 431 -214 801 -590 1020 c -184 108 -464 172 -670 154 z m 296 -303 c 200 -47 390 -173 519 -344 c 167 -224 213 -561 113 -831 c -198 -535 -830 -750 -1316 -449 c -91 57 -233 196 -280 276 c -51 85 -101 208 -119 290 c -22 99 -22 291 0 382 c 68 274 242 492 489 611 c 193 93 386 114 594 65 z"
						stroke-linecap="round" />
				</g>
			</g>
		</g>
	</svg>